<svg xmlns="http://www.w3.org/2000/svg" viewBox="0 0 262.04 231.78"><defs><style>.cls-1{fill:#7dc22b;}.cls-2{font-size:36px;fill:#fff;font-family:Poppins-Medium, Poppins;font-weight:500;}</style></defs><g id="Capa_2" data-name="Capa 2"><g id="Objects"><path class="cls-1" d="M100.84,158.89a23.36,23.36,0,0,0-4.91-25.78L58.2,95.37c6.68,20.54,17.12,38,31.09,52Z"/><path class="cls-1" d="M163.84,44.48l37.74,37.73c-6.69-20.54-17.13-38-31.1-52L158.93,18.69A23.37,23.37,0,0,0,163.84,44.48Z"/><path class="cls-1" d="M85.44,54.8l37.75-37.74c-20.55,6.69-38,17.13-52,31.1L59.65,59.72A23.45,23.45,0,0,0,69,61.63,23.14,23.14,0,0,0,85.44,54.8Z"/><path class="cls-1" d="M174.33,122.78l-37.74,37.74c20.54-6.68,38-17.12,52-31.1l11.56-11.56a23.41,23.41,0,0,0-25.79,4.92Z"/><path class="cls-1" d="M91.51,60.86,152.36,0,128.18,6.62C103,13.51,81.8,25.44,65.15,42.1L46.38,60.86a31.9,31.9,0,0,0,45.13,0Zm-20.3-12.7c14-14,31.43-24.41,52-31.1L85.44,54.8A23.14,23.14,0,0,1,69,61.63a23.45,23.45,0,0,1-9.3-1.91Z"/><path class="cls-1" d="M83.23,153.41,102,172.17a31.92,31.92,0,0,0,0-45.12L41.14,66.19l6.62,24.18C54.64,115.54,66.58,136.75,83.23,153.41Zm12.7-20.3a23.36,23.36,0,0,1,4.91,25.78L89.29,147.34c-14-14-24.41-31.43-31.09-52Z"/><path class="cls-1" d="M190.83,107.38a31.79,31.79,0,0,0-22.56,9.34l-60.86,60.86L131.59,171c25.17-6.88,46.38-18.82,63-35.47l18.76-18.77a31.78,31.78,0,0,0-22.56-9.34Zm-2.27,22c-14,14-31.43,24.42-52,31.1l37.74-37.74a23.41,23.41,0,0,1,25.79-4.92Z"/><path class="cls-1" d="M157.78,50.54l60.85,60.85L212,87.21c-6.89-25.17-18.83-46.38-35.48-63L157.78,5.41A31.92,31.92,0,0,0,157.78,50.54Zm1.15-31.85,11.55,11.55c14,14,24.41,31.43,31.1,52L163.84,44.48A23.37,23.37,0,0,1,158.93,18.69Z"/><text class="cls-2" transform="translate(0 216.01)">Paideia Studio</text></g></g></svg>